<?xml version="1.0" encoding="utf-8"?>
<!-- Generator: Adobe Illustrator 19.0.0, SVG Export Plug-In . SVG Version: 6.00 Build 0)  -->
<svg version="1.1" id="Layer_1" xmlns="http://www.w3.org/2000/svg" xmlns:xlink="http://www.w3.org/1999/xlink" x="0px" y="0px"
	 viewBox="0 0 28 28" style="enable-background:new 0 0 28 28;" xml:space="preserve">
<style type="text/css">
	.st0{fill-rule:evenodd;clip-rule:evenodd;fill:#FFFFFF;}
</style>
<g>
	<path class="st0" d="M28,14c0,7.7-6.3,14-14,14C6.3,28,0,21.7,0,14C0,6.3,6.3,0,14,0C21.7,0,28,6.3,28,14z M14,2.5
		C7.7,2.5,2.5,7.7,2.5,14c0,6.3,5.1,11.5,11.5,11.5c6.3,0,11.5-5.1,11.5-11.5C25.5,7.7,20.3,2.5,14,2.5z M21.1,19.2h-3v-8.6h-2.5v11
		h5.5V19.2z M13.9,6.5h-2.5v8.1c0,0.5-0.3,1-0.9,1c-0.5,0-0.9-0.4-0.9-1V6.5H7.1v8c0,2,1.5,3,3.4,3c1.9,0,3.4-1,3.4-3V6.5z"/>
</g>
</svg>
