<?xml version="1.0" encoding="utf-8"?>
<!-- Generator: Adobe Illustrator 19.0.0, SVG Export Plug-In . SVG Version: 6.00 Build 0)  -->
<svg version="1.1" id="Layer_1" xmlns="http://www.w3.org/2000/svg" xmlns:xlink="http://www.w3.org/1999/xlink" x="0px" y="0px"
	 viewBox="0 0 89 18" style="enable-background:new 0 0 89 18;" xml:space="preserve">
<style type="text/css">
	.st0{fill:#FFFFFF;}
</style>
<g id="XMLID_1_">
	<g id="XMLID_12_">
		<path id="XMLID_36_" class="st0" d="M4.5,11.6c-0.3,0-0.7,0-1.1-0.1v6.1H0V0.3c1.4-0.1,3-0.1,4.7-0.1c4.3,0,6.6,2,6.6,5.4
			C11.3,9,8.7,11.6,4.5,11.6z M4.5,2.9c-0.4,0-0.8,0-1.2,0v5.8c0.3,0.1,0.7,0.1,1,0.1c2.1,0,3.5-1.2,3.5-3C7.8,4,6.8,2.9,4.5,2.9z"
			/>
		<path id="XMLID_34_" class="st0" d="M17.4,18c-3.9,0-4.8-2.1-4.8-4.5V5.5h2.8v7.7c0,1.4,0.5,2.3,2.2,2.3c1.6,0,2.2-0.7,2.2-2.5
			V5.5h2.8v7.4C22.5,16.4,20.6,18,17.4,18z"/>
		<path id="XMLID_31_" class="st0" d="M30.1,17.7l-2.8-4.8h-0.2v4.8h-2.8V5.5c1-0.1,2.3-0.1,3.8-0.1c2.9,0,4.6,1,4.6,3.6
			c0,1.6-1.1,3-2.6,3.4c0.3,0.5,0.7,0.9,0.9,1.4l2.5,3.9H30.1z M27.9,7.7c-0.3,0-0.6,0-0.8,0v3.1c0.1,0,0.4,0,0.7,0
			c1.2,0,2-0.6,2-1.7C29.7,8.3,29.2,7.7,27.9,7.7z"/>
		<path id="XMLID_28_" class="st0" d="M34.7,17.7V5.5h6.9v2.4h-4v2.4h3.8v2.3h-3.8v2.7h4v2.4H34.7z"/>
		<path id="XMLID_23_" class="st0" d="M51,18c-5.3,0-7.9-3.4-7.9-8.8c0-5.8,3.8-9.2,8.5-9.2c4.6,0,7.9,2.8,7.9,8.8
			C59.5,14.5,55.7,18,51,18z M51.3,3c-2.4,0-4.6,1.9-4.6,5.8c0,3.7,1.4,6.1,4.6,6.1c2.3,0,4.7-1.8,4.7-5.9C55.9,5.1,54.3,3,51.3,3z"
			/>
		<path id="XMLID_20_" class="st0" d="M72.3,17.7v-7.6h-7.4v7.6h-3.4V0.3h3.4v7h7.4v-7h3.4v17.4H72.3z"/>
		<path id="XMLID_16_" class="st0" d="M81.6,18c-1.5,0-2.9-0.2-4-0.5l0.4-3.2c1.1,0.5,2.4,0.7,3.8,0.7c1.6,0,2.9-0.6,2.9-2.3
			c0-3.3-7.3-1.8-7.3-7.5c0-3.1,2.4-5.2,6.6-5.2c1,0,2.2,0.1,3.2,0.3l-0.3,2.9c-1-0.3-2-0.5-3-0.5c-2,0-2.9,0.9-2.9,2.1
			c0,3.1,7.5,2,7.5,7.5C88.4,15.6,85.7,18,81.6,18z"/>
	</g>
</g>
</svg>
