<?xml version="1.0" encoding="utf-8"?>
<!-- Generator: Adobe Illustrator 19.0.0, SVG Export Plug-In . SVG Version: 6.00 Build 0)  -->
<svg version="1.1" id="Layer_1" xmlns="http://www.w3.org/2000/svg" xmlns:xlink="http://www.w3.org/1999/xlink" x="0px" y="0px"
	 viewBox="0 0 118 24" style="enable-background:new 0 0 118 24;" xml:space="preserve">
<style type="text/css">
	.st0{fill:#3374BA;}
</style>
<g id="XMLID_39_">
	<g id="XMLID_40_">
		<path id="XMLID_55_" class="st0" d="M6,15.5c-0.4,0-1,0-1.5-0.1v8.2H0V0.4c1.9-0.1,4-0.1,6.2-0.1c5.7,0,8.8,2.7,8.8,7.2
			C15.1,11.9,11.6,15.5,6,15.5z M6.1,3.9c-0.6,0-1.1,0-1.6,0v7.7c0.4,0.1,0.9,0.1,1.3,0.1c2.8,0,4.6-1.5,4.6-4.1
			C10.4,5.4,9.1,3.9,6.1,3.9z"/>
		<path id="XMLID_53_" class="st0" d="M23.2,23.9c-5.2,0-6.4-2.8-6.4-6V7.4h3.8v10.3c0,1.9,0.6,3.1,2.9,3.1c2.1,0,2.9-0.9,2.9-3.3
			V7.4H30v9.9C30,21.8,27.5,23.9,23.2,23.9z"/>
		<path id="XMLID_50_" class="st0" d="M40.1,23.6l-3.8-6.4h-0.2v6.4h-3.8V7.4c1.4-0.1,3.1-0.1,5.1-0.1c3.8,0,6.1,1.4,6.1,4.8
			c0,2.2-1.4,4-3.5,4.5c0.4,0.6,0.9,1.2,1.3,1.8l3.3,5.2H40.1z M37.2,10.3c-0.4,0-0.8,0-1,0v4.2c0.2,0,0.6,0,0.9,0
			c1.6,0,2.6-0.8,2.6-2.2C39.7,11.1,38.9,10.3,37.2,10.3z"/>
		<path id="XMLID_48_" class="st0" d="M46.3,23.6V7.4h9.2v3.2h-5.4v3.2h5.1v3.1h-5.1v3.6h5.4v3.2H46.3z"/>
		<path id="XMLID_45_" class="st0" d="M68,24c-7.1,0-10.6-4.5-10.6-11.7C57.4,4.6,62.6,0,68.8,0C75,0,79.4,3.7,79.4,11.7
			C79.4,19.4,74.3,24,68,24z M68.4,4c-3.2,0-6.2,2.5-6.2,7.8c0,4.9,1.9,8.1,6.1,8.1c3,0,6.3-2.3,6.3-7.9C74.6,6.9,72.4,4,68.4,4z"/>
		<path id="XMLID_43_" class="st0" d="M96.3,23.6V13.5h-9.8v10.1H82V0.4h4.5v9.3h9.8V0.4h4.5v23.2H96.3z"/>
		<path id="XMLID_41_" class="st0" d="M108.9,24c-2.1,0-3.8-0.2-5.4-0.6l0.5-4.3c1.5,0.6,3.2,1,5.1,1c2.1,0,3.9-0.9,3.9-3
			c0-4.4-9.8-2.4-9.8-10.1c0-4.1,3.2-7,8.8-7c1.3,0,2.9,0.2,4.2,0.4l-0.4,3.9c-1.3-0.4-2.6-0.7-4-0.7c-2.6,0-3.8,1.1-3.8,2.8
			c0,4.2,10,2.6,10,10C117.9,20.8,114.2,24,108.9,24z"/>
	</g>
</g>
</svg>
